<svg width="170" height="124" viewBox="0 0 170 124" fill="none" xmlns="http://www.w3.org/2000/svg">
<circle cx="90.1151" cy="30.338" r="30.161" fill="#C4C4C4"/>
<path fill-rule="evenodd" clip-rule="evenodd" d="M138.888 113.906H41.3428C41.3428 86.9698 63.179 65.1336 90.1154 65.1336C117.052 65.1336 138.888 86.9698 138.888 113.906Z" fill="#C4C4C4"/>
<path d="M119.369 108.927C119.654 109.432 120.128 109.798 120.687 109.947C121.246 110.097 121.839 110.018 122.338 109.723L156.255 89.8439C170.398 81.5565 167.71 59.9717 151.89 55.7327C142.389 53.1871 136.159 59 134.111 59.8487C132.755 58.0818 130.292 49.9456 120.772 47.3948C105.002 43.1692 91.7974 60.4419 99.9389 74.7541L119.369 108.927Z" fill="#D73CE4"/>
<path d="M40.1108 79.8044C40.5114 79.9744 40.9606 79.9744 41.3613 79.8075C41.762 79.6406 42.0783 79.3217 42.2398 78.9176L53.2934 51.5732C57.9039 40.1716 46.4223 28.5749 35.0794 33.2999C28.2676 36.1374 27.2269 42.4448 26.3983 43.8871C24.7832 43.458 19.594 39.7505 12.7683 42.5938C1.46125 47.3038 1.5232 63.6154 12.9154 68.393L40.1108 79.8044Z" fill="#D73CE4"/>
<path d="M75.1505 113.014C75.4959 113.111 75.8631 113.063 76.1729 112.884C76.4827 112.705 76.7074 112.411 76.7966 112.064L82.9341 88.5438C85.4944 78.7367 74.8818 70.4748 66.1116 75.5383C60.8449 78.5791 60.6624 83.8445 60.138 85.111C58.7725 84.9315 54.1385 82.451 48.861 85.4979C40.1186 90.5454 41.8972 103.871 51.7144 106.568L75.1505 113.014Z" fill="#D73CE4"/>
</svg>
